<svg id="Layer_1" data-name="Layer 1" xmlns="http://www.w3.org/2000/svg" xmlns:xlink="http://www.w3.org/1999/xlink" viewBox="0 0 2853.04 496.48"><defs><style>.cls-1{fill:url(#linear-gradient);}.cls-2{fill:url(#linear-gradient-2);}.cls-3{fill:#2d2d2d;}</style><linearGradient id="linear-gradient" x1="-55.55" y1="597.1" x2="468.94" y2="559.23" gradientTransform="translate(475.05 2.29)" gradientUnits="userSpaceOnUse"><stop offset="0" stop-color="#ff007e"/><stop offset="0.09" stop-color="#f70182"/><stop offset="0.23" stop-color="#df038d"/><stop offset="0.41" stop-color="#b9069f"/><stop offset="0.61" stop-color="#850ab8"/><stop offset="0.84" stop-color="#4310d8"/><stop offset="1" stop-color="#0e14f1"/></linearGradient><linearGradient id="linear-gradient-2" x1="-391.58" y1="517.13" x2="158.9" y2="632.19" xlink:href="#linear-gradient"/></defs><path class="cls-1" d="M532.51,538.38c1.55.09,3.07.14,4.61.14H901.94V659.65H604.82c-26,0-27.57,39.3-1.61,41,1.52.09,3.06.13,4.6.13H901.94V821.89H611.5c-.45-1-.94-2.08-1.45-3.11L405.86,343.05a72.49,72.49,0,0,0,21.08,21.35,71.64,71.64,0,0,0,39.49,11.87H901.94V497.4H534.12C508.12,497.4,506.56,536.7,532.51,538.38Z" transform="translate(-109.49 -332.43)"/><path class="cls-2" d="M610.05,818.78a72.39,72.39,0,0,0-25.2-28.61,71.54,71.54,0,0,0-39.48-11.87H109.49V657.16H477.67c26,0,27.57-39.3,1.61-41-1.52-.09-3.06-.13-4.6-.13H109.49V494.92H407c26,0,27.56-39.3,1.61-41-1.52-.09-3.07-.14-4.59-.14H109.49V332.67l291.82-.24c1.59,3.65,2.72,6.51,4.55,10.62Z" transform="translate(-109.49 -332.43)"/><path class="cls-3" d="M947.25,443.88h121.66c53.94,0,93.69,42.59,93.69,100.18s-39.75,100.17-93.69,100.17H995.1v91.66H947.25Zm47.85,47.86V596.37h67.32c32,0,52.73-20.68,52.73-52.31,0-32-20.28-52.32-52.32-52.32Z" transform="translate(-109.49 -332.43)"/><path class="cls-3" d="M1267.64,529.05c25.55,0,49.07,13.38,62.45,29.2V533.11H1378V735.89h-47.86v-26c-13.38,16.63-36.9,30-62.45,30-58,0-100.58-47.45-100.58-105.44S1209.64,529.05,1267.64,529.05ZM1214.91,634.5a57.59,57.59,0,1,0,57.59-57.59A57.82,57.82,0,0,0,1214.91,634.5Z" transform="translate(-109.49 -332.43)"/><path class="cls-3" d="M1413.22,735.89V533.11h47.86v23.11c13.79-16.22,34.87-27.17,60.83-27.17v45.42a23.42,23.42,0,0,0-5.27-.4c-30.42,0-55.56,21.49-55.56,52.31V735.89Z" transform="translate(-109.49 -332.43)"/><path class="cls-3" d="M1559.35,528.45c10.54,0,17.84-6.89,17.84-17.44v-36.9h47.86v54.34h51.5v47.86h-51.5V648.9c0,32,4.86,40.15,24.33,40.15,8.92,0,17-1.22,27.17-3.24v45.42a147.31,147.31,0,0,1-33.66,4c-46.23,0-65.7-21.08-65.7-72.19V576.31h-37.31V528.45Z" transform="translate(-109.49 -332.43)"/><path class="cls-3" d="M1702.91,732.39V529.61h47.85v21.9a84.17,84.17,0,0,1,60.84-26c47,0,79.49,33.25,79.49,84.76V732.39h-47.86V620.46c0-34.07-17.84-49.89-43.39-49.89-27.58,0-49.08,20.28-49.08,52.32v109.5Z" transform="translate(-109.49 -332.43)"/><path class="cls-3" d="M2017.61,525.56c57.59,0,96.93,42.18,96.93,102.6,0,7.71-1.22,16.23-2,24.34H1961.65c8.11,25.14,30.82,40.55,60.83,40.55,19.47,0,38.12-6.89,50.29-20.27l30.42,30.41c-19.47,21.5-47.86,33.26-81.12,33.26-61.24,0-107.88-45.83-107.88-105.45S1958.81,525.56,2017.61,525.56Zm-56.78,89.63h108.69c-4.05-28.8-25.55-46.64-52.72-46.64C1988.82,568.55,1964.89,587.2,1960.83,615.19Z" transform="translate(-109.49 -332.43)"/><path class="cls-3" d="M2137.65,732.39V529.61h47.86v23.12c13.79-16.22,34.88-27.17,60.83-27.17V571a22.86,22.86,0,0,0-5.27-.41c-30.42,0-55.56,21.5-55.56,52.32v109.5Z" transform="translate(-109.49 -332.43)"/><path class="cls-3" d="M2279.19,669.13c15.82,13.79,38.53,23.92,61.24,23.92,20.28,0,36.09-8.51,36.09-19.46,0-17-25.55-22.31-40.55-26.36-33.26-9.33-78.27-19.07-78.27-62.46,0-34.47,33.66-59.21,79.48-59.21,31.64,0,60.84,11.76,80.71,29.6l-26.36,32.45C2376.93,575,2356.65,569,2337.18,569c-21.08,0-31.22,7.3-31.22,16.22,0,11,20.28,15.42,42.17,20.69,40.15,9.33,76.25,23.52,76.25,67.32,0,36.5-36.1,63.27-85.17,63.27A128.73,128.73,0,0,1,2250.8,702Z" transform="translate(-109.49 -332.43)"/><path class="cls-3" d="M2445.05,732.39v-292h47.86V551.51a84.15,84.15,0,0,1,60.83-26c47.05,0,79.49,33.25,79.49,84.76V732.39h-47.85V620.46c0-34.07-17.85-49.89-43.4-49.89-27.58,0-49.07,20.28-49.07,52.32v109.5Z" transform="translate(-109.49 -332.43)"/><path class="cls-3" d="M2692.43,436.34a28.59,28.59,0,1,1-28.38,28.38A28.46,28.46,0,0,1,2692.43,436.34Zm-23.92,296.05V529.61h47.85V732.39Z" transform="translate(-109.49 -332.43)"/><path class="cls-3" d="M2751.64,529.61h47.86v26c13.38-16.63,36.9-30,62.45-30,58.4,0,100.58,47,100.58,105.44,0,58-42.18,105.45-100.58,105.45-25.55,0-49.07-13.38-62.45-29.61V828.92h-47.86ZM2799.5,631a57.59,57.59,0,1,0,57.59-57.59A57.8,57.8,0,0,0,2799.5,631Z" transform="translate(-109.49 -332.43)"/></svg>