<svg width="46" height="46" viewBox="0 0 46 46" fill="none" xmlns="http://www.w3.org/2000/svg">
<g clip-path="url(#clip0_1_132)">
<circle cx="23" cy="23" r="23" fill="#5B60FF"/>
<path d="M33.8292 31.4638C33.8292 31.4638 32.3808 32.8863 32.0259 33.3033C31.4477 33.9203 30.7665 34.2117 29.8734 34.2117C29.7876 34.2117 29.696 34.2117 29.6101 34.206C27.9099 34.0974 26.3299 33.4347 25.1449 32.8691C21.9048 31.3038 19.0596 29.0815 16.6954 26.265C14.7433 23.917 13.4381 21.7461 12.5736 19.4152C12.0412 17.9927 11.8466 16.8844 11.9325 15.8389C11.9897 15.1705 12.2473 14.6164 12.7225 14.1422L14.6746 12.1941C14.9551 11.9313 15.2528 11.7885 15.5447 11.7885C15.9054 11.7885 16.1973 12.0055 16.3805 12.1884C16.3862 12.1941 16.392 12.1998 16.3977 12.2055C16.7469 12.5311 17.0789 12.8682 17.4281 13.2281C17.6056 13.4109 17.7888 13.5937 17.972 13.7823L19.5348 15.3419C20.1416 15.9475 20.1416 16.5073 19.5348 17.1129C19.3688 17.2786 19.2085 17.4442 19.0425 17.6042C18.5616 18.0955 18.9393 17.7185 18.4413 18.1642C18.4298 18.1756 18.4184 18.1813 18.4127 18.1927C17.9204 18.684 18.012 19.1639 18.115 19.4895C18.1207 19.5067 18.1264 19.5238 18.1322 19.541C18.5386 20.5236 19.1111 21.4491 19.9812 22.5517L19.9869 22.5574C21.5669 24.4998 23.2328 26.0137 25.0704 27.1734C25.3051 27.322 25.5456 27.4419 25.7745 27.5562C25.9806 27.659 26.1753 27.7562 26.3413 27.859C26.3642 27.8704 26.3871 27.8875 26.41 27.899C26.6046 27.9961 26.7878 28.0418 26.9767 28.0418C27.4519 28.0418 27.7495 27.7447 27.8469 27.6476L28.969 26.5278C29.1636 26.3336 29.4727 26.0993 29.8334 26.0993C30.1883 26.0993 30.4803 26.3221 30.6577 26.5164C30.6634 26.5221 30.6634 26.5221 30.6692 26.5278L33.8234 29.6756C34.4131 30.2583 33.8292 31.4638 33.8292 31.4638Z" fill="white"/>
</g>
<defs>
<clipPath id="clip0_1_132">
<rect width="46" height="46" fill="white"/>
</clipPath>
</defs>
</svg>
