<svg width="46" height="46" viewBox="0 0 46 46" fill="none" xmlns="http://www.w3.org/2000/svg">
<g clip-path="url(#clip0_1_146)">
<circle cx="23" cy="23" r="23" fill="#5B60FF"/>
<path d="M32 25.1071C33.5842 26.2907 35 29.2708 35 31.107C35 31.679 34.5826 32.1428 34.0678 32.1428H33.5M27.5 20.2555C28.5248 19.6627 29.2143 18.5547 29.2143 17.2856C29.2143 16.0166 28.5248 14.9086 27.5 14.3157M11.9322 32.1428H28.3535C28.8683 32.1428 29.2857 31.679 29.2857 31.107C29.2857 27.5112 26.2816 24.5963 20.1429 24.5963C14.0041 24.5963 11 27.5112 11 31.107C11 31.679 11.4174 32.1428 11.9322 32.1428ZM23.5714 17.2856C23.5714 19.1792 22.0364 20.7142 20.1429 20.7142C18.2493 20.7142 16.7143 19.1792 16.7143 17.2856C16.7143 15.3921 18.2493 13.8571 20.1429 13.8571C22.0364 13.8571 23.5714 15.3921 23.5714 17.2856Z" stroke="white" stroke-width="2.5" stroke-linecap="round"/>
</g>
<defs>
<clipPath id="clip0_1_146">
<rect width="46" height="46" fill="white"/>
</clipPath>
</defs>
</svg>
