<svg width="46" height="46" viewBox="0 0 46 46" fill="none" xmlns="http://www.w3.org/2000/svg">
<g clip-path="url(#clip0_1_142)">
<circle cx="23" cy="23" r="23" fill="#5B60FF"/>
<path d="M14.5625 31.75H31.4375C32.9908 31.75 34.25 30.425 34.25 28.7904V17.2096C34.25 15.575 32.9908 14.25 31.4375 14.25H14.5625C13.0092 14.25 11.75 15.575 11.75 17.2096V28.7904C11.75 30.425 13.0092 31.75 14.5625 31.75Z" fill="white"/>
<path d="M13.1563 15.7298L23 23.8686L33.5469 15.7298M20.0699 23.0001L13.1563 30.5276M32.8437 29.911L25.9292 23.0001M14.5625 31.75C13.0092 31.75 11.75 30.425 11.75 28.7904V17.2096C11.75 15.575 13.0092 14.25 14.5625 14.25H31.4375C32.9908 14.25 34.25 15.575 34.25 17.2096V28.7904C34.25 30.425 32.9908 31.75 31.4375 31.75H14.5625Z" stroke="#5B60FF" stroke-width="2.5" stroke-linecap="round" stroke-linejoin="round"/>
</g>
<defs>
<clipPath id="clip0_1_142">
<rect width="46" height="46" fill="white"/>
</clipPath>
</defs>
</svg>
