<svg width="46" height="46" viewBox="0 0 46 46" fill="none" xmlns="http://www.w3.org/2000/svg">
<g clip-path="url(#clip0_1_137)">
<circle cx="23" cy="23" r="23" fill="#5B60FF"/>
<path d="M22.9999 35C22.9999 35 32.3913 26.6522 32.3913 20.3913C32.3913 15.2046 28.1866 11 22.9999 11C17.8133 11 13.6086 15.2046 13.6086 20.3913C13.6086 26.6522 22.9999 35 22.9999 35Z" fill="white"/>
<path d="M26.0003 20.0002C26.0003 21.657 24.6572 23.0002 23.0003 23.0002C21.3435 23.0002 20.0003 21.657 20.0003 20.0002C20.0003 18.3433 21.3435 17.0002 23.0003 17.0002C24.6572 17.0002 26.0003 18.3433 26.0003 20.0002Z" fill="white"/>
<path d="M26 20C26 21.6569 24.6569 23 23 23C21.3431 23 20 21.6569 20 20C20 18.3431 21.3431 17 23 17C24.6569 17 26 18.3431 26 20Z" fill="#5B60FF"/>
</g>
<defs>
<clipPath id="clip0_1_137">
<rect width="46" height="46" fill="white"/>
</clipPath>
</defs>
</svg>
